# xmcd
#
# Track frame offsets: 
#        150
#        17395
#        30711
#        47158
#        57913
#        70899
#        85896
#        105581
#        120529
#        143090
#        154144
#        170721
#        185103
#        199860
#        213123
#        228153
#        246074
#
# Disc length: 3542 seconds
#
# Revision: 0
# Processed by: cddbd v1.5.2PL0 Copyright (c) Steve Scherf et al.
# Submitted via: ExactAudioCopy v1.0b3
#
DISCID=e50dd411
DTITLE=Piero - Mi Viejo
DYEAR=1969
DGENRE=Pop
TTITLE0=Yo Vengo (Balada)
TTITLE1=De Vez En Cuando Viene Bien Dormir (Beat)
TTITLE2=Como Somos (Sonata)
TTITLE3=Caminando Por Caracas (Balada - Beat)
TTITLE4=Fumemos Un Cigarrillo (Balada - Beat)
TTITLE5=Mi Viejo (Balada)
TTITLE6=Juan Boliche (Balada)
TTITLE7=Dígame, Dígame (Beat)
TTITLE8=Tomamos Un Café (Balada)
TTITLE9=Tengo La Piel Cansada De La Tarde (Balada)
TTITLE10=La Gringa (Balada)
TTITLE11=Un Uomo Senza Tempo (Mi Viejo versión en Italiano)
TTITLE12=Mi Viejo (Versión Mono)
TTITLE13=Si Vos Te Vas (Lado B Mi Viejo)
TTITLE14=No Te Vayas Por Favor
TTITLE15=Io Vengo (Yo Vengo versión en Italiano)
TTITLE16=Juan Tequila (Juan Boliche versión para México)
EXTD=
EXTT0=
EXTT1=
EXTT2=
EXTT3=
EXTT4=
EXTT5=
EXTT6=
EXTT7=
EXTT8=
EXTT9=
EXTT10=
EXTT11=
EXTT12=
EXTT13=
EXTT14=
EXTT15=
EXTT16=
PLAYORDER=
